<?xml version="1.0" encoding="utf-8"?>
<svg width="800px" height="800px" viewBox="0 0 32 32" xmlns="http://www.w3.org/2000/svg">
  <!-- Background Circle -->
  <circle cx="16" cy="16" r="16" fill="#181717" />

  <!-- Octocat Icon -->
  <path
    fill="#FFF"
    d="M16 3C9.373 3 4 8.373 4 15c0 5.31 3.438 9.805 8.207 11.387.6.11.793-.26.793-.577 0-.285-.01-1.04-.015-2.04-3.338.726-4.042-1.61-4.042-1.61-.545-1.383-1.332-1.75-1.332-1.75-1.09-.745.084-.729.084-.729 1.205.085 1.84 1.24 1.84 1.24 1.07 1.835 2.808 1.305 3.495.997.11-.776.42-1.305.765-1.605-2.665-.305-5.467-1.335-5.467-5.935 0-1.31.47-2.38 1.236-3.22-.124-.305-.536-1.525.12-3.18 0 0 1.01-.325 3.3 1.24a11.47 11.47 0 0 1 3-.405c1.02.005 2.05.14 3 .405 2.29-1.565 3.3-1.24 3.3-1.24.656 1.655.244 2.875.12 3.18.765.84 1.235 1.91 1.235 3.22 0 4.61-2.807 5.63-5.48 5.93.43.37.815 1.1.815 2.22 0 1.61-.015 2.91-.015 3.3 0 .315.19.694.8.575C24.563 24.8 28 20.31 28 15c0-6.627-5.373-12-12-12Z"
  />
</svg>
