<?xml version="1.0" encoding="utf-8"?>
<svg width="800px" height="800px" viewBox="0 0 32 32" xmlns="http://www.w3.org/2000/svg">
  <!-- Background Circle -->
  <circle cx="16" cy="16" r="16" fill="#000000"/>

  <!-- JWT Hexagon -->
  <polygon points="16,4 26,10 26,22 16,28 6,22 6,10" fill="#FFFFFF"/>

  <!-- Inner Colorful Triangles -->
  <polygon points="16,4 21,10 16,16 11,10" fill="#F7B600"/>
  <polygon points="26,10 21,10 16,16 21,22" fill="#00AEEF"/>
  <polygon points="26,22 21,22 16,28 21,16" fill="#00B25D"/>
  <polygon points="16,28 11,22 16,16 21,22" fill="#7327B7"/>
  <polygon points="6,22 11,22 16,16 11,10" fill="#E535AB"/>
  <polygon points="6,10 11,10 16,16 11,22" fill="#F24C00"/>

  <!-- "JWT" Text -->
  <text x="10" y="30" font-family="Arial, sans-serif" font-size="6" fill="white" font-weight="bold">
    JWT
  </text>
</svg>
