<svg xmlns="http://www.w3.org/2000/svg" viewBox="0 0 256 255" width="100" height="100">
  <linearGradient id="a" x1="12.959%" x2="79.639%" y1="8.199%" y2="78.72%">
    <stop offset="0%" stop-color="#387EB8"/>
    <stop offset="100%" stop-color="#366994"/>
  </linearGradient>
  <linearGradient id="b" x1="19.128%" x2="90.742%" y1="20.579%" y2="88.429%">
    <stop offset="0%" stop-color="#FFE052"/>
    <stop offset="100%" stop-color="#FFC331"/>
  </linearGradient>
  <path fill="url(#a)" d="M126.916 0c-10.156.046-19.84.91-28.468 2.449C79.943 5.285 72.021 9.007 66.95 14.122c-10.128 10.042-9.558 28.547-9.558 42.677h69.459v8.682H50.158C23.012 65.481.193 71.777.193 112.436v33.684c0 37.804 22.12 35.57 50.158 35.57h30.462v-41.83c0-9.098 7.486-16.521 16.521-16.521h69.371c8.65 0 15.635-7.083 15.635-15.635V37.229c0-29.597-25.063-35.61-55.424-37.002-5.262-.205-10.391-.276-15.46-.276zm-33.8 19.374a12.5 12.5 0 0 1 12.52 12.52 12.5 12.5 0 0 1-12.52 12.52 12.5 12.5 0 0 1-12.52-12.52 12.5 12.5 0 0 1 12.52-12.52z"/>
  <path fill="url(#b)" d="M129.084 255c10.156-.046 19.84-.91 28.468-2.449 18.505-2.836 26.427-6.558 31.498-11.673 10.128-10.042 9.558-28.547 9.558-42.677h-69.459v-8.682h76.693c27.147 0 49.966-6.296 49.966-46.955v-33.684c0-37.804-22.12-35.57-49.966-35.57h-30.462v41.83c0 9.098-7.486 16.521-16.521 16.521h-69.371c-8.65 0-15.635 7.083-15.635 15.635v79.65c0 29.597 25.063 35.61 55.424 37.002 5.262.205 10.391.276 15.46.276zm33.8-19.374a12.5 12.5 0 0 1-12.52-12.52 12.5 12.5 0 0 1 12.52-12.52 12.5 12.5 0 0 1 12.52 12.52 12.5 12.5 0 0 1-12.52 12.52z"/>
</svg>
