<?xml version="1.0" encoding="utf-8"?>
<svg width="800px" height="800px" viewBox="0 0 32 32" xmlns="http://www.w3.org/2000/svg">
  <!-- Background Circle -->
  <circle cx="16" cy="16" r="16" fill="#635BFF" />

  <!-- Stripe "S" Logo -->
  <path
    fill="white"
    d="M20.8 10.5c-1.6-0.8-3.2-1.1-5-1.1-4.2 0-7 2.1-7 5.6 0 4.4 6 4.7 6 6.6 0 0.8-0.7 1.4-2 1.4-1.6 0-3.2-0.5-4.3-1.2v4.2c1.4 0.6 3 1 4.8 1 4.5 0 7.2-2.1 7.2-5.7 0-4.3-6-4.6-6-6.5 0-0.8 0.6-1.3 1.9-1.3 1.3 0 2.6 0.3 3.8 0.9V10.5z"
  />
</svg>
