<?xml version="1.0" encoding="utf-8"?>
<svg width="800px" height="800px" viewBox="0 0 32 32" xmlns="http://www.w3.org/2000/svg">
  <!-- Blue Background -->
  <circle cx="16" cy="16" r="16" fill="#2C8EBB" />

  <!-- Yarn Ball -->
  <path
    fill="#FFF"
    d="M16 6a10 10 0 1 0 10 10A10 10 0 0 0 16 6zm-3.47 12.7a4.68 4.68 0 0 1 1.24-.8 4.59 4.59 0 0 0-.61-1.37 3.49 3.49 0 0 0-1.07-1.07 4.35 4.35 0 0 0-1.27-.64 6.22 6.22 0 0 1-.27-1.48 3.59 3.59 0 0 1 3.69-3.5 3.67 3.67 0 0 1 2.92 1.48 2.14 2.14 0 0 1 .13 2.33 3.58 3.58 0 0 1-1.8 1.56c-.42.22-.69.41-.82.55-.23.27-.27.52-.29.73v.11c.06.71.6 1.45 1.05 1.84s1.07.54 1.37.52h.1c.19-.02.34-.09.48-.13.14-.05.27-.1.43-.09a2.09 2.09 0 0 1 1.52 2.24 4.23 4.23 0 0 1-1.6 2.72c-.46.37-1.07.55-1.77.55-.95 0-1.8-.51-2.44-1.08-.59-.51-1.08-1.08-1.56-1.63l-.22-.26a9.8 9.8 0 0 1-.48-.58 6.62 6.62 0 0 1-.5-.65zm5.92-1.72a.82.82 0 0 0-.55.15 3.32 3.32 0 0 0-.29.2l-.15.1-.01.01-.22-.15-.03-.02c-.22-.15-.47-.34-.65-.56a3.08 3.08 0 0 1-.48-3.62c.35-.62.91-.9 1.31-.9h.1c.28 0 .52.1.69.31a1.15 1.15 0 0 1-.36 1.62c-.08.04-.12.1-.18.16-.13.11-.3.26-.46.46-.23.27-.38.46-.47.6a1.3 1.3 0 0 0-.22.56c-.02.09-.05.16-.07.26.19.25.5.43.93.47h.1c.14 0 .27-.03.4-.07a.81.81 0 0 0 .45-1z"
  />
</svg>
